<?xml version="1.0" encoding="UTF-8" standalone="no"?>
<!-- Created with Inkscape (http://www.inkscape.org/) -->

<svg
   xmlns:dc="http://purl.org/dc/elements/1.1/"
   xmlns:cc="http://creativecommons.org/ns#"
   xmlns:rdf="http://www.w3.org/1999/02/22-rdf-syntax-ns#"
   xmlns:svg="http://www.w3.org/2000/svg"
   xmlns="http://www.w3.org/2000/svg"
   xmlns:sodipodi="http://sodipodi.sourceforge.net/DTD/sodipodi-0.dtd"
   xmlns:inkscape="http://www.inkscape.org/namespaces/inkscape"
   width="1592"
   height="890"
   viewBox="0 0 1591.9999 889.99998"
   id="svg2"
   version="1.1"
   inkscape:version="0.91 r13725"
   sodipodi:docname="Siberian Tatar Flag.svg">
  <defs
     id="defs4" />
  <sodipodi:namedview
     id="base"
     pagecolor="#ffffff"
     bordercolor="#666666"
     borderopacity="1.0"
     inkscape:pageopacity="0.0"
     inkscape:pageshadow="2"
     inkscape:zoom="0.65228614"
     inkscape:cx="656.63172"
     inkscape:cy="421.77099"
     inkscape:document-units="px"
     inkscape:current-layer="layer1"
     showgrid="false"
     fit-margin-top="0"
     fit-margin-left="0"
     fit-margin-right="0"
     fit-margin-bottom="0"
     units="px"
     inkscape:snap-bbox="false"
     inkscape:snap-bbox-midpoints="true"
     inkscape:object-paths="true"
     inkscape:snap-midpoints="true"
     inkscape:object-nodes="true"
     inkscape:snap-smooth-nodes="true"
     inkscape:snap-intersection-paths="true"
     inkscape:snap-nodes="false"
     inkscape:bbox-nodes="true"
     inkscape:bbox-paths="true"
     inkscape:snap-bbox-edge-midpoints="true"
     inkscape:snap-center="true"
     inkscape:window-width="1920"
     inkscape:window-height="1018"
     inkscape:window-x="-8"
     inkscape:window-y="-8"
     inkscape:window-maximized="1" />
  <metadata
     id="metadata7">
    <rdf:RDF>
      <cc:Work
         rdf:about="">
        <dc:format>image/svg+xml</dc:format>
        <dc:type
           rdf:resource="http://purl.org/dc/dcmitype/StillImage" />
        <dc:title></dc:title>
      </cc:Work>
    </rdf:RDF>
  </metadata>
  <g
     inkscape:label="Layer 1"
     inkscape:groupmode="layer"
     id="layer1"
     transform="translate(338.85715,-4.5050621)">
    <rect
       style="opacity:1;fill:#0195ff;fill-opacity:1;stroke:none;stroke-width:0.30000001;stroke-linecap:butt;stroke-linejoin:bevel;stroke-miterlimit:4;stroke-dasharray:none;stroke-dashoffset:0;stroke-opacity:1"
       id="rect4240"
       width="1592"
       height="890"
       x="-338.85721"
       y="4.5050621" />
    <rect
       style="opacity:1;fill:#ffffff;fill-opacity:1;stroke:none;stroke-width:0.30000001;stroke-linecap:butt;stroke-linejoin:bevel;stroke-miterlimit:4;stroke-dasharray:none;stroke-dashoffset:0;stroke-opacity:1"
       id="rect4242"
       width="1592"
       height="325"
       x="-338.85721"
       y="569.50507" />
    <rect
       y="639.50513"
       x="-338.85721"
       height="255"
       width="1592"
       id="rect4244"
       style="opacity:1;fill:#009800;fill-opacity:1;stroke:none;stroke-width:0.30000001;stroke-linecap:butt;stroke-linejoin:bevel;stroke-miterlimit:4;stroke-dasharray:none;stroke-dashoffset:0;stroke-opacity:1" />
    <path
       style="opacity:1;fill:#ffff00;fill-opacity:1;stroke:none;stroke-width:0.30000001;stroke-linecap:butt;stroke-linejoin:bevel;stroke-miterlimit:4;stroke-dasharray:none;stroke-dashoffset:0;stroke-opacity:1"
       d="M -192.55468,165.50506 A 175.0004,179.86472 0 0 0 -246.85721,295.64072 175.0004,179.86472 0 0 0 -71.857211,475.50506 175.0004,179.86472 0 0 0 103.14279,295.64072 175.0004,179.86472 0 0 0 49.149128,165.98752 145.12472,147.51208 0 0 1 73.267505,247.27153 145.12472,147.51208 0 0 1 -71.857211,394.78361 145.12472,147.51208 0 0 1 -216.98193,247.27153 a 145.12472,147.51208 0 0 1 24.42725,-81.76647 z"
       id="path4149"
       inkscape:connector-curvature="0" />
    <path
       sodipodi:type="star"
       style="opacity:1;fill:#ffff00;fill-opacity:1;stroke:none;stroke-width:0.29428595;stroke-linecap:butt;stroke-linejoin:bevel;stroke-miterlimit:4;stroke-dasharray:none;stroke-dashoffset:0;stroke-opacity:1"
       id="path4147"
       sodipodi:sides="8"
       sodipodi:cx="-71.857201"
       sodipodi:cy="129.50507"
       sodipodi:r1="44.999996"
       sodipodi:r2="22.499998"
       sodipodi:arg1="-1.5707963"
       sodipodi:arg2="-1.1780972"
       inkscape:flatsided="false"
       inkscape:rounded="0"
       inkscape:randomized="0"
       d="m -71.857199,84.50507 8.610376,24.21271 23.209426,-11.032516 -11.032516,23.209426 24.212709,8.61038 -24.212709,8.61037 11.032514,23.20943 -23.209426,-11.03252 -8.610377,24.21271 -8.610376,-24.21271 -23.209422,11.03252 11.032511,-23.20943 -24.212711,-8.61038 24.212712,-8.61037 -11.032512,-23.209427 23.209424,11.032517 z"
       inkscape:transform-center-y="-4.2971235" />
    <circle
       style="opacity:1;fill:#ffff00;fill-opacity:1;stroke:none;stroke-width:0.30000001;stroke-linecap:butt;stroke-linejoin:bevel;stroke-miterlimit:4;stroke-dasharray:none;stroke-dashoffset:0;stroke-opacity:1"
       id="path4154"
       cx="-71.857208"
       cy="370.50507"
       r="20" />
    <path
       inkscape:connector-curvature="0"
       style="fill:#ffff00;fill-rule:evenodd;stroke:none;stroke-width:1px;stroke-linecap:butt;stroke-linejoin:miter;stroke-opacity:1"
       d="m -71.85721,197.50506 c -11.76175,0 -17.9445,14.62767 -25.18164,16.64062 -5.23678,1.45657 -9.41086,7.13092 -9.5918,19.74805 -0.2124,14.80988 23.86906,34.06993 26.23828,38.2168 2.36924,4.14687 2.89454,24.32016 2.89454,39.31445 0,14.99429 -1.65404,21.67185 -4.70508,20.8457 -3.05105,-0.82612 -7.96197,-11.70161 -6.69532,-21.02734 1.25489,-9.23909 -4.88606,-28.89151 -10.85742,-34.92578 -5.97136,-6.03429 -13.1986,-8.00998 -21.16992,-5.85156 -7.97132,2.15842 -8.86786,-0.1836 -23.88672,-0.1836 -15.01886,0 -13.20898,14.62892 -13.20898,25.78321 -6.33325,4.93714 -9.3188,16.18076 0.54297,26.14648 9.86178,9.96572 33.83789,8.96094 33.83789,8.96094 22.07668,0 32.80764,10.95143 37.66601,18.73047 a 25,25 0 0 1 14.11719,-4.39844 25,25 0 0 1 14.13086,4.37891 c 4.86493,-7.77783 15.59656,-18.71094 37.6543,-18.71094 0,0 23.97415,1.00478 33.83593,-8.96094 9.86179,-9.96572 6.87623,-21.20934 0.54297,-26.14648 0,-11.15429 1.80988,-25.78321 -13.20898,-25.78321 -15.01885,0 -15.9154,2.34202 -23.88672,0.1836 -7.97132,-2.15842 -15.19857,-0.18273 -21.16992,5.85156 -5.97136,6.03427 -12.11231,25.68669 -10.85742,34.92578 1.26665,9.32573 -3.64427,20.20121 -6.69532,21.02734 -3.05103,0.82615 -4.70507,-5.85141 -4.70508,-20.8457 0,-14.99429 0.5253,-35.16758 2.89454,-39.31445 2.36922,-4.14687 26.45067,-23.40692 26.23828,-38.2168 -0.18095,-12.61713 -4.35112,-18.29148 -9.58789,-19.74805 -7.23714,-2.01294 -13.42379,-16.64062 -25.18555,-16.64062 z"
       id="path4156" />
    <path
       inkscape:transform-center-y="-2.8647655"
       d="m -71.857207,405.13202 5.740251,16.14181 15.472952,-7.35501 -7.355011,15.47295 16.141807,5.74025 -16.141808,5.74025 7.355011,15.47295 -15.472952,-7.35501 -5.740252,16.14181 -5.740251,-16.14181 -15.472952,7.35501 7.355011,-15.47295 -16.141809,-5.74025 16.141809,-5.74025 -7.35501,-15.47295 15.472952,7.35501 z"
       inkscape:randomized="0"
       inkscape:rounded="0"
       inkscape:flatsided="false"
       sodipodi:arg2="-1.1780972"
       sodipodi:arg1="-1.5707963"
       sodipodi:r2="15"
       sodipodi:r1="30"
       sodipodi:cy="435.13202"
       sodipodi:cx="-71.857208"
       sodipodi:sides="8"
       id="path4164"
       style="opacity:1;fill:#0195ff;fill-opacity:1;stroke:none;stroke-width:0.53038573;stroke-linecap:butt;stroke-linejoin:bevel;stroke-miterlimit:4;stroke-dasharray:none;stroke-dashoffset:0;stroke-opacity:1"
       sodipodi:type="star" />
    <path
       sodipodi:type="star"
       style="opacity:1;fill:#0195ff;fill-opacity:1;stroke:none;stroke-width:0.53038573;stroke-linecap:butt;stroke-linejoin:bevel;stroke-miterlimit:4;stroke-dasharray:none;stroke-dashoffset:0;stroke-opacity:1"
       id="path4173"
       sodipodi:sides="8"
       sodipodi:cx="8.1427889"
       sodipodi:cy="410.50507"
       sodipodi:r1="25"
       sodipodi:r2="12.5"
       sodipodi:arg1="-1.5707963"
       sodipodi:arg2="-1.1780972"
       inkscape:flatsided="false"
       inkscape:rounded="0"
       inkscape:randomized="0"
       d="m 8.1427896,385.50507 4.7835424,13.4515 12.894127,-6.12917 -6.129176,12.89412 13.451506,4.78355 -13.451506,4.78354 6.129175,12.89413 -12.894127,-6.12918 -4.7835428,13.45151 -4.7835427,-13.45151 -12.8941266,6.12917 6.1291756,-12.89412 -13.4515055,-4.78354 13.4515059,-4.78355 -6.1291751,-12.89412 12.8941267,6.12917 z"
       inkscape:transform-center-y="-2.3873046" />
    <path
       inkscape:transform-center-y="-2.3873046"
       d="m 151.85721,385.50507 4.78354,13.4515 12.89413,-6.12917 -6.12918,12.89412 13.45151,4.78355 -13.45151,4.78354 6.12918,12.89413 -12.89413,-6.12918 -4.78354,13.45151 -4.78355,-13.45151 -12.89412,6.12917 6.12917,-12.89412 -13.4515,-4.78354 13.4515,-4.78355 -6.12917,-12.89412 12.89413,6.12917 z"
       inkscape:randomized="0"
       inkscape:rounded="0"
       inkscape:flatsided="false"
       sodipodi:arg2="-1.1780972"
       sodipodi:arg1="-1.5707963"
       sodipodi:r2="12.5"
       sodipodi:r1="25"
       sodipodi:cy="410.50507"
       sodipodi:cx="151.85721"
       sodipodi:sides="8"
       id="path4189"
       style="opacity:1;fill:#0195ff;fill-opacity:1;stroke:none;stroke-width:0.53038573;stroke-linecap:butt;stroke-linejoin:bevel;stroke-miterlimit:4;stroke-dasharray:none;stroke-dashoffset:0;stroke-opacity:1"
       sodipodi:type="star"
       transform="scale(-1,1)" />
    <path
       inkscape:transform-center-y="-1.9098437"
       d="m 58.142788,342.50507 3.826835,10.7612 10.315301,-4.90334 -4.903341,10.3153 10.761205,3.82684 -10.761205,3.82683 4.90334,10.3153 -10.315301,-4.90334 -3.826835,10.76121 -3.826834,-10.76121 -10.315301,4.90334 4.90334,-10.3153 -10.761204,-3.82683 10.761205,-3.82684 -4.90334,-10.3153 10.315301,4.90334 z"
       inkscape:randomized="0"
       inkscape:rounded="0"
       inkscape:flatsided="false"
       sodipodi:arg2="-1.1780972"
       sodipodi:arg1="-1.5707963"
       sodipodi:r2="10"
       sodipodi:r1="20"
       sodipodi:cy="362.50507"
       sodipodi:cx="58.142788"
       sodipodi:sides="8"
       id="path4197"
       style="opacity:1;fill:#0195ff;fill-opacity:1;stroke:none;stroke-width:0.53038573;stroke-linecap:butt;stroke-linejoin:bevel;stroke-miterlimit:4;stroke-dasharray:none;stroke-dashoffset:0;stroke-opacity:1"
       sodipodi:type="star" />
    <path
       sodipodi:type="star"
       style="opacity:1;fill:#0195ff;fill-opacity:1;stroke:none;stroke-width:0.53038573;stroke-linecap:butt;stroke-linejoin:bevel;stroke-miterlimit:4;stroke-dasharray:none;stroke-dashoffset:0;stroke-opacity:1"
       id="path4201"
       sodipodi:sides="8"
       sodipodi:cx="201.85721"
       sodipodi:cy="362.50507"
       sodipodi:r1="20"
       sodipodi:r2="10"
       sodipodi:arg1="-1.5707963"
       sodipodi:arg2="-1.1780972"
       inkscape:flatsided="false"
       inkscape:rounded="0"
       inkscape:randomized="0"
       d="m 201.85721,342.50507 3.82683,10.7612 10.3153,-4.90334 -4.90334,10.3153 10.76121,3.82684 -10.76121,3.82683 4.90334,10.3153 -10.3153,-4.90334 -3.82683,10.76121 -3.82684,-10.76121 -10.3153,4.90334 4.90334,-10.3153 -10.7612,-3.82683 10.7612,-3.82684 -4.90334,-10.3153 10.3153,4.90334 z"
       inkscape:transform-center-y="-1.9098437"
       transform="scale(-1,1)" />
    <path
       sodipodi:type="star"
       style="opacity:1;fill:#0195ff;fill-opacity:1;stroke:none;stroke-width:0.53038573;stroke-linecap:butt;stroke-linejoin:bevel;stroke-miterlimit:4;stroke-dasharray:none;stroke-dashoffset:0;stroke-opacity:1"
       id="path4215"
       sodipodi:sides="8"
       sodipodi:cx="82.642792"
       sodipodi:cy="308.00507"
       sodipodi:r1="12.5"
       sodipodi:r2="6.25"
       sodipodi:arg1="-1.5707963"
       sodipodi:arg2="-1.1780972"
       inkscape:flatsided="false"
       inkscape:rounded="0"
       inkscape:randomized="0"
       d="m 82.642792,295.50507 2.391771,6.72575 6.447064,-3.06459 -3.064588,6.44706 6.725753,2.39178 -6.725753,2.39177 3.064587,6.44706 -6.447063,-3.06459 -2.391772,6.72576 -2.391771,-6.72576 -6.447063,3.06459 3.064588,-6.44706 -6.725753,-2.39177 6.725753,-2.39178 -3.064588,-6.44706 6.447064,3.06459 z"
       inkscape:transform-center-y="-1.1936523" />
    <path
       inkscape:transform-center-y="-1.1936523"
       d="m 226.35721,295.50507 2.39177,6.72575 6.44706,-3.06459 -3.06458,6.44706 6.72575,2.39178 -6.72575,2.39177 3.06458,6.44706 -6.44706,-3.06459 -2.39177,6.72576 -2.39177,-6.72576 -6.44707,3.06459 3.06459,-6.44706 -6.72575,-2.39177 6.72575,-2.39178 -3.06459,-6.44706 6.44707,3.06459 z"
       inkscape:randomized="0"
       inkscape:rounded="0"
       inkscape:flatsided="false"
       sodipodi:arg2="-1.1780972"
       sodipodi:arg1="-1.5707963"
       sodipodi:r2="6.25"
       sodipodi:r1="12.5"
       sodipodi:cy="308.00507"
       sodipodi:cx="226.35721"
       sodipodi:sides="8"
       id="path4219"
       style="opacity:1;fill:#0195ff;fill-opacity:1;stroke:none;stroke-width:0.53038573;stroke-linecap:butt;stroke-linejoin:bevel;stroke-miterlimit:4;stroke-dasharray:none;stroke-dashoffset:0;stroke-opacity:1"
       sodipodi:type="star"
       transform="scale(-1,1)" />
  </g>
</svg>
